<?xml version="1.0" encoding="utf-8"?>
<!-- Generator: Adobe Illustrator 21.1.0, SVG Export Plug-In . SVG Version: 6.00 Build 0)  -->
<svg version="1.1" id="Layer_1" xmlns="http://www.w3.org/2000/svg" xmlns:xlink="http://www.w3.org/1999/xlink" x="0px" y="0px"
	 viewBox="0 0 87 113" style="enable-background:new 0 0 87 113;" xml:space="preserve">
<style type="text/css">
	.st0{fill:#102B72;stroke:#102B72;stroke-width:0.3109;}
	.st1{fill:#102B72;}
	.st2{fill:#987C4D;}
	.st3{fill:none;}
</style>
<g>
	<path class="st0" d="M1,111.6c-0.6-0.3-0.6-0.4-0.6-1.4c0-1.9,0.2-3.4,0.2-4c0-0.4,0.1-0.6,0.3-0.6c0.2,0,0.3,0.1,0.3,0.4
		c0,0.3,0,0.9,0.1,1.4c0.6,2.8,3.2,3.8,5.9,3.8c3.8,0,5.6-2.6,5.6-5c0-2.6-1.1-4.1-4.5-6.8l-1.8-1.4c-4.2-3.3-5.1-5.6-5.1-8.2
		c0-4,3.2-6.8,8.2-6.8c1.5,0,2.7,0.2,3.7,0.4c0.8,0.2,1.1,0.2,1.4,0.2c0.3,0,0.4,0.1,0.4,0.3c0,0.2-0.2,1.4-0.2,4
		c0,0.6-0.1,0.9-0.3,0.9c-0.2,0-0.3-0.2-0.3-0.5c0-0.5-0.3-1.5-0.5-1.9c-0.2-0.4-1.3-2-4.9-2c-2.7,0-4.9,1.6-4.9,4.4
		c0,2.1,1.1,3.4,4.8,6.3l1.1,0.8c4.7,3.5,5.8,5.8,5.8,8.8c0,1.5-0.6,4.4-3.4,6.2c-1.7,1.1-3.8,1.6-6,1.6
		C4.4,112.6,2.6,112.4,1,111.6z"/>
	<path class="st0" d="M52.9,107.6c0.2,1.4,0.4,3.5,2.1,4c1.1,0.3,2.2,0.3,2.6,0.3c0.2,0,0.3,0,0.3,0.2c0,0.2-0.4,0.3-0.8,0.3
		c-0.9,0-5.1-0.1-6.6-0.2c-0.9-0.1-1.1-0.2-1.1-0.4c0-0.1,0.1-0.2,0.3-0.3c0.2,0,0.2-0.7,0.2-1.4L48,90.9h-0.1l-9.7,19.6
		c-0.8,1.7-0.9,2-1.3,2c-0.3,0-0.5-0.4-1.2-1.7c-1-1.8-4.4-8.4-4.6-8.7c-0.4-0.7-4.8-9.7-5.2-10.7h-0.2l-1.6,17.5c0,0.6,0,1.3,0,1.9
		c0,0.6,0.4,1.1,1,1.2c0.7,0.2,1.3,0.2,1.5,0.2c0.2,0,0.3,0.1,0.3,0.2c0,0.3-0.2,0.3-0.7,0.3c-1.5,0-3.4-0.1-3.7-0.1
		c-0.4,0-2.3,0.1-3.3,0.1c-0.4,0-0.7-0.1-0.7-0.3c0-0.1,0.2-0.2,0.4-0.2c0.3,0,0.6,0,1.2-0.1c1.3-0.2,1.4-1.7,1.6-3.1l2.8-24.5
		c0.1-0.4,0.2-0.7,0.4-0.7c0.2,0,0.4,0.2,0.6,0.6l12.1,23.7l11.6-23.6c0.2-0.3,0.3-0.6,0.6-0.6c0.3,0,0.4,0.3,0.5,1L52.9,107.6z"/>
	<path class="st0" d="M60,94.6c0-5.9,0-6.9-0.1-8.1c-0.1-1.3-0.4-1.9-1.7-2.1c-0.3-0.1-1-0.1-1.3-0.1c-0.2,0-0.3-0.1-0.3-0.2
		c0-0.2,0.2-0.3,0.6-0.3c1.8,0,4.2,0.1,4.5,0.1c0.4,0,2.7-0.1,3.9-0.1c0.4,0,0.6,0.1,0.6,0.3c0,0.2-0.2,0.2-0.3,0.2
		c-0.3,0-0.5,0-1,0.1c-1.1,0.2-1.4,0.8-1.5,2.1c-0.1,1.2-0.1,2.3-0.1,8.1v5.3c0,5.4,1.3,7.8,3,9.3c1.9,1.7,3.7,2.1,6,2.1
		c2.4,0,4.8-1.1,6.2-2.7c1.8-2.1,2.3-5.3,2.3-9.2v-4.7c0-5.9,0-6.9-0.1-8.1c-0.1-1.3-0.4-1.9-1.7-2.1c-0.3-0.1-1-0.1-1.3-0.1
		c-0.2,0-0.3-0.1-0.3-0.2c0-0.2,0.2-0.3,0.6-0.3c1.8,0,4,0.1,4.2,0.1c0.3,0,2.1-0.1,3.3-0.1c0.4,0,0.6,0.1,0.6,0.3
		c0,0.2-0.2,0.2-0.3,0.2c-0.3,0-0.5,0-1,0.1c-1.1,0.2-1.4,0.8-1.5,2.1c-0.1,1.2-0.1,2.3-0.1,8.1v4c0,4.1-0.5,8.6-3.6,11.3
		c-2.8,2.4-5.8,2.8-8.1,2.8c-1.3,0-5.3-0.2-8.1-2.7c-1.9-1.8-3.4-4.4-3.4-9.9V94.6z"/>
</g>
<g>
	<polygon class="st1" points="46,44.5 38.1,37.3 38.1,37.3 38,37.3 38,37.3 38,37.3 30.1,44.5 38,42 38.1,42 	"/>
	<g>
		<polygon class="st1" points="38.1,37.3 40.7,30.1 46.5,29.4 		"/>
		<polygon class="st1" points="52.4,31.7 46.5,29.4 46.3,19.7 		"/>
		<polygon class="st1" points="47.8,15.3 53.7,15.3 46.3,19.7 		"/>
	</g>
	<polygon class="st2" points="38,37.3 35.4,30.1 29.6,29.4 	"/>
	<polygon class="st2" points="23.7,31.7 29.6,29.4 29.7,19.7 	"/>
	<polygon class="st2" points="28.3,15.3 22.4,15.3 29.7,19.7 	"/>
	<path class="st2" d="M58.3,0.9c-5.3,5-8.9,2.8-10.7,2.4c-1-0.4-2.2-0.6-3.5-0.6c-3.2,0-5.8,1.4-5.8,3.1c0,0.6,0.3,1.2,0.9,1.7
		c0.6-0.6,1.5-1,2.6-1.3l0,0c1.1-0.2,3.1-0.4,5.4,0.2c0.2,0.1,0.4,0.1,0.7,0.2c0,0,0,0,0,0c0.3,0.1,0.5,0.1,0.7,0.2
		c0.1,0,0.2,0,0.3,0.1c6,1.3,9.5-1.7,9.5-1.7L58.3,0.9z"/>
	<path class="st1" d="M37.5,53c0,0-3.3,0-4.9-0.8c-2.9-1.4-3.5-5.8-3.9-9.4c0-0.4-2.8-1.3-4.1-2.5c-2.1-1.9-1.8-8-1.8-8.4
		c0-0.4-3.4-2.1-3.4-5.8c0-1.6,0-10.4,0-10.4c-2.2-2.8-3.7-2.8-5.4-2.3c-2.2,0.7-2.9,2.3-5.2,2.7c0,0.5,0,26.9,0,26.9
		c0,8.1,1.5,13.7,9.8,20c7.7,5.8,13.7,5.6,18.9,15.1C37.6,78.3,37.5,53,37.5,53z"/>
</g>
<line class="st3" x1="-50.1" y1="-25.5" x2="130.1" y2="-25.5"/>
</svg>
