<?xml version="1.0" encoding="utf-8"?>
<!-- Generator: Adobe Illustrator 21.1.0, SVG Export Plug-In . SVG Version: 6.00 Build 0)  -->
<svg version="1.1" id="Layer_1" xmlns="http://www.w3.org/2000/svg" xmlns:xlink="http://www.w3.org/1999/xlink" x="0px" y="0px"
	 viewBox="0 0 196.3 77.1" style="enable-background:new 0 0 196.3 77.1;" xml:space="preserve">
<style type="text/css">
	.st0{fill:#FFFFFF;stroke:#FFFFFF;stroke-width:0.3113;}
	.st1{fill:#FFFFFF;}
</style>
<g>
	<g>
		<g>
			<g>
				<path class="st0" d="M59.2,42.6c-0.6-0.3-0.6-0.4-0.6-1.4c0-1.9,0.2-3.4,0.2-4c0-0.4,0.1-0.6,0.3-0.6c0.2,0,0.3,0.1,0.3,0.4
					c0,0.3,0,0.9,0.1,1.4c0.6,2.8,3.2,3.9,5.9,3.9c3.8,0,5.7-2.6,5.7-5c0-2.6-1.1-4.1-4.6-6.8L64.7,29c-4.2-3.3-5.1-5.6-5.1-8.2
					c0-4,3.2-6.8,8.2-6.8c1.5,0,2.7,0.1,3.7,0.4c0.8,0.2,1.1,0.2,1.4,0.2c0.3,0,0.4,0.1,0.4,0.3c0,0.2-0.2,1.4-0.2,4
					c0,0.6-0.1,0.9-0.3,0.9c-0.2,0-0.3-0.2-0.3-0.5c0-0.5-0.3-1.5-0.5-1.9c-0.2-0.4-1.3-2-5-2c-2.7,0-4.9,1.6-4.9,4.4
					c0,2.2,1.1,3.4,4.8,6.3l1.1,0.8c4.7,3.5,5.8,5.8,5.8,8.9c0,1.5-0.6,4.4-3.4,6.3c-1.7,1.1-3.8,1.6-6,1.6
					C62.6,43.6,60.8,43.4,59.2,42.6z"/>
				<path class="st0" d="M111.3,38.7c0.2,1.4,0.4,3.5,2.1,4c1.2,0.3,2.2,0.3,2.6,0.3c0.2,0,0.3,0,0.3,0.2c0,0.2-0.4,0.3-0.8,0.3
					c-0.9,0-5.1-0.1-6.6-0.2c-0.9-0.1-1.1-0.2-1.1-0.4c0-0.1,0.1-0.2,0.3-0.3c0.2,0,0.2-0.7,0.2-1.4l-1.9-19.5h-0.1l-9.7,19.6
					c-0.8,1.7-1,2-1.3,2c-0.3,0-0.5-0.4-1.2-1.7c-1-1.8-4.4-8.4-4.6-8.7c-0.4-0.7-4.8-9.7-5.2-10.8h-0.2l-1.6,17.5
					c0,0.6,0,1.3,0,1.9c0,0.6,0.4,1.1,1,1.2C84,43,84.6,43,84.8,43c0.2,0,0.3,0.1,0.3,0.2c0,0.3-0.2,0.3-0.7,0.3
					c-1.5,0-3.4-0.1-3.7-0.1c-0.4,0-2.3,0.1-3.3,0.1c-0.4,0-0.7-0.1-0.7-0.3c0-0.1,0.2-0.2,0.4-0.2c0.3,0,0.6,0,1.2-0.1
					c1.3-0.2,1.4-1.7,1.6-3.1l2.9-24.6c0.1-0.4,0.2-0.7,0.4-0.7c0.2,0,0.4,0.1,0.6,0.6l12.1,23.7l11.6-23.7c0.2-0.3,0.3-0.6,0.6-0.6
					c0.3,0,0.4,0.3,0.5,1L111.3,38.7z"/>
				<path class="st0" d="M118.3,25.5c0-5.9,0-6.9-0.1-8.1c-0.1-1.3-0.4-1.9-1.7-2.1c-0.3-0.1-1-0.1-1.3-0.1c-0.2,0-0.3-0.1-0.3-0.2
					c0-0.2,0.2-0.3,0.6-0.3c1.8,0,4.2,0.1,4.6,0.1c0.4,0,2.7-0.1,3.9-0.1c0.4,0,0.6,0.1,0.6,0.3c0,0.2-0.2,0.2-0.3,0.2
					c-0.3,0-0.5,0-1,0.1c-1.1,0.2-1.4,0.8-1.5,2.1c-0.1,1.2-0.1,2.3-0.1,8.1v5.3c0,5.4,1.3,7.8,3,9.3c1.9,1.7,3.7,2.1,6,2.1
					c2.4,0,4.8-1.1,6.2-2.7c1.8-2.2,2.3-5.4,2.3-9.2v-4.7c0-5.9,0-6.9-0.1-8.1c-0.1-1.3-0.4-1.9-1.7-2.1c-0.3-0.1-1-0.1-1.3-0.1
					c-0.2,0-0.3-0.1-0.3-0.2c0-0.2,0.2-0.3,0.6-0.3c1.8,0,4,0.1,4.2,0.1c0.3,0,2.1-0.1,3.3-0.1c0.4,0,0.6,0.1,0.6,0.3
					c0,0.2-0.2,0.2-0.3,0.2c-0.3,0-0.5,0-1,0.1c-1.1,0.2-1.4,0.8-1.5,2.1c-0.1,1.2-0.1,2.3-0.1,8.1v4c0,4.1-0.5,8.6-3.6,11.3
					c-2.9,2.4-5.8,2.8-8.2,2.8c-1.3,0-5.3-0.1-8.2-2.7c-1.9-1.8-3.4-4.4-3.4-9.9V25.5z"/>
			</g>
			<g>
				<polygon class="st1" points="37.2,43.5 29.2,36.3 29.2,36.3 29.2,36.3 29.2,36.3 29.2,36.3 21.3,43.5 29.2,41 29.2,41 				"/>
				<g>
					<polygon class="st1" points="29.2,36.3 31.8,29.1 37.7,28.4 					"/>
					<polygon class="st1" points="43.6,30.7 37.7,28.4 37.5,18.8 					"/>
					<polygon class="st1" points="39,14.4 44.8,14.4 37.5,18.8 					"/>
				</g>
				<polygon class="st1" points="29.2,36.3 26.6,29.1 20.8,28.4 				"/>
				<polygon class="st1" points="14.9,30.7 20.8,28.4 20.9,18.8 				"/>
				<polygon class="st1" points="19.5,14.4 13.6,14.4 20.9,18.8 				"/>
				<path class="st1" d="M49.4,0c-5.3,5-8.9,2.8-10.7,2.4c-1-0.4-2.2-0.6-3.5-0.6c-3.2,0-5.8,1.4-5.8,3.1c0,0.6,0.3,1.2,0.9,1.7
					c0.6-0.6,1.5-1,2.6-1.3l0,0C34.1,5,36,4.8,38.3,5.4c0.2,0.1,0.4,0.1,0.7,0.2l0,0c0.3,0.1,0.5,0.1,0.7,0.2c0.1,0,0.2,0,0.3,0.1
					c6,1.3,9.5-1.7,9.5-1.7L49.4,0z"/>
				<path class="st1" d="M28.7,52c0,0-3.3,0-4.9-0.8c-2.9-1.4-3.5-5.8-3.9-9.4c0-0.4-2.8-1.3-4.1-2.5c-2.1-1.9-1.8-8-1.8-8.4
					c0-0.4-3.4-2.1-3.4-5.8c0-1.6,0-10.4,0-10.4C8.4,12,7,12,5.2,12.5C3,13.3,2.3,14.9,0,15.2c0,0.5,0,26.8,0,26.8
					c0,8.1,1.5,13.7,9.8,20c7.7,5.8,13.7,5.6,18.9,15.1C28.8,77.3,28.7,52,28.7,52z"/>
			</g>
		</g>
		<g>
			<path class="st1" d="M58.8,58.7c-0.1-0.1-0.2-0.1-0.2-0.3c0-0.5,0-1,0-1.2c0-0.1,0-0.2,0.1-0.2c0.1,0,0.1,0.1,0.1,0.2
				c0,0.1,0,0.3,0.1,0.5c0.2,0.7,0.7,0.9,1.3,0.9c0.8,0,1.2-0.5,1.2-1c0-0.4-0.1-0.9-0.9-1.4l-0.4-0.3c-1-0.8-1.4-1.4-1.4-2.1
				c0-1,0.8-1.7,2.1-1.7c0.6,0,1,0.1,1.2,0.2c0.1,0,0.1,0,0.1,0.1c0,0.1,0,0.4,0,1.1c0,0.2,0,0.3-0.1,0.3c-0.1,0-0.1-0.1-0.1-0.2
				c0-0.1,0-0.4-0.2-0.6c-0.1-0.2-0.4-0.4-1-0.4c-0.7,0-1.1,0.4-1.1,0.9c0,0.4,0.2,0.7,1,1.3l0.3,0.2c1.1,0.8,1.5,1.4,1.5,2.3
				c0,0.5-0.2,1.1-0.9,1.6c-0.5,0.3-1,0.4-1.5,0.4C59.6,58.9,59.2,58.9,58.8,58.7z"/>
			<path class="st1" d="M64.6,54.6c0-1.4,0-1.6,0-1.9c0-0.3-0.1-0.5-0.3-0.5c-0.1,0-0.2,0-0.3,0c-0.1,0-0.1,0-0.1-0.1
				c0-0.1,0.1-0.1,0.2-0.1c0.3,0,0.9,0,1.2,0c0.2,0,0.8,0,1.1,0c0.1,0,0.2,0,0.2,0.1c0,0.1-0.1,0.1-0.1,0.1c-0.1,0-0.2,0-0.3,0
				c-0.2,0-0.3,0.2-0.3,0.5c0,0.3,0,0.5,0,1.9v1.6c0,0.9,0,1.6,0,2c0,0.2,0.1,0.4,0.4,0.4c0.1,0,0.3,0,0.5,0c0.1,0,0.1,0,0.1,0.1
				c0,0.1-0.1,0.1-0.2,0.1c-0.6,0-1.2,0-1.4,0c-0.2,0-0.8,0-1.2,0c-0.1,0-0.2,0-0.2-0.1c0,0,0-0.1,0.1-0.1c0.1,0,0.2,0,0.3,0
				c0.2,0,0.2-0.2,0.3-0.5c0-0.4,0-1.1,0-2V54.6z"/>
			<path class="st1" d="M69.3,57.6c0,0.7,0.1,0.9,0.3,1c0.2,0.1,0.3,0.1,0.5,0.1c0.1,0,0.2,0,0.2,0.1c0,0.1-0.1,0.1-0.2,0.1
				c-0.6,0-1,0-1.1,0c-0.1,0-0.5,0-1,0c-0.1,0-0.2,0-0.2-0.1c0-0.1,0.1-0.1,0.1-0.1c0.1,0,0.3,0,0.4,0c0.2-0.1,0.3-0.3,0.3-1.1
				l0.1-5.3c0-0.2,0-0.3,0.1-0.3c0.1,0,0.2,0.1,0.3,0.3c0.1,0.1,1.5,1.6,2.8,2.9c0.6,0.6,1.9,1.9,2,2.1h0l-0.1-4
				c0-0.5-0.1-0.7-0.3-0.8c-0.1-0.1-0.4-0.1-0.5-0.1c-0.1,0-0.1,0-0.1-0.1c0-0.1,0.1-0.1,0.2-0.1c0.5,0,0.9,0,1.1,0
				c0.1,0,0.4,0,0.9,0c0.1,0,0.2,0,0.2,0.1c0,0.1-0.1,0.1-0.2,0.1c-0.1,0-0.2,0-0.3,0c-0.3,0.1-0.3,0.3-0.3,0.8l-0.1,5.7
				c0,0.2,0,0.3-0.1,0.3c-0.1,0-0.2-0.1-0.3-0.2c-0.6-0.5-1.7-1.7-2.7-2.6c-1-1-2-2.1-2.2-2.3h0L69.3,57.6z"/>
			<path class="st1" d="M83,58.2c0,0.2,0,0.3-0.1,0.3c-0.6,0.3-1.5,0.4-2.2,0.4c-2.2,0-4.2-1-4.2-3.5c0-1.4,0.8-2.4,1.6-2.9
				c0.9-0.5,1.7-0.6,2.5-0.6c0.6,0,1.4,0.1,1.6,0.1c0.2,0,0.5,0.1,0.7,0.1c0.1,0,0.1,0,0.1,0.1c0,0.1-0.1,0.4-0.1,1.5
				c0,0.1,0,0.2-0.1,0.2c-0.1,0-0.1,0-0.1-0.1c0-0.2-0.1-0.5-0.3-0.7c-0.3-0.3-1-0.7-2-0.7c-0.5,0-1.2,0-1.8,0.6
				c-0.5,0.4-0.8,1.1-0.8,2.2c0,1.9,1.3,3.4,3.2,3.4c0.2,0,0.6,0,0.8-0.1c0.1-0.1,0.2-0.2,0.2-0.3v-0.8c0-0.4,0-0.8,0-1.1
				c0-0.3-0.1-0.5-0.4-0.5c-0.1,0-0.2,0-0.4,0c-0.1,0-0.1,0-0.1-0.1c0-0.1,0.1-0.1,0.2-0.1c0.5,0,1.1,0,1.3,0c0.3,0,0.8,0,1.1,0
				c0.1,0,0.2,0,0.2,0.1c0,0.1-0.1,0.1-0.1,0.1c-0.1,0-0.1,0-0.2,0c-0.2,0-0.3,0.2-0.3,0.5c0,0.3,0,0.6,0,1.1V58.2z"/>
			<path class="st1" d="M86,56.5C86,56.5,85.9,56.5,86,56.5l-0.6,1.4c-0.1,0.2-0.1,0.4-0.1,0.5c0,0.2,0.1,0.3,0.4,0.3h0.1
				c0.1,0,0.1,0,0.1,0.1c0,0.1-0.1,0.1-0.2,0.1c-0.3,0-0.7,0-1,0c-0.1,0-0.6,0-1.1,0c-0.1,0-0.2,0-0.2-0.1c0-0.1,0-0.1,0.1-0.1
				c0.1,0,0.2,0,0.3,0c0.4-0.1,0.6-0.4,0.8-0.8l2.3-5.7c0.1-0.3,0.2-0.4,0.3-0.4c0.1,0,0.1,0.1,0.2,0.3c0.2,0.5,1.7,4.2,2.3,5.5
				c0.3,0.8,0.6,0.9,0.8,1c0.1,0,0.3,0,0.4,0c0.1,0,0.1,0,0.1,0.1c0,0.1-0.1,0.1-0.4,0.1c-0.3,0-1,0-1.7,0c-0.2,0-0.3,0-0.3-0.1
				c0-0.1,0-0.1,0.1-0.1c0.1,0,0.1-0.1,0.1-0.2l-0.7-1.9c0,0,0-0.1-0.1-0.1H86z M87.9,56C87.9,56,87.9,56,87.9,56l-0.8-2.3
				c0,0,0-0.1,0-0.1c0,0,0,0-0.1,0.1L86.1,56c0,0,0,0.1,0,0.1H87.9z"/>
			<path class="st1" d="M92.1,54.6c0-1.4,0-1.6,0-1.9c0-0.3-0.1-0.5-0.4-0.5c-0.1,0-0.2,0-0.4,0c-0.1,0-0.2,0-0.2-0.1
				c0-0.1,0.1-0.1,0.2-0.1c0.5,0,1.1,0,1.3,0c0.4,0,0.9,0,1.3,0c1.1,0,1.6,0.4,1.7,0.5c0.2,0.2,0.5,0.6,0.5,1.1c0,1.3-1,2.2-2.3,2.2
				c0,0-0.1,0-0.2,0c0,0-0.1,0-0.1-0.1c0-0.1,0.1-0.1,0.3-0.1c0.5,0,1.2-0.6,1.2-1.5c0-0.3,0-0.9-0.5-1.4c-0.3-0.3-0.7-0.3-0.9-0.3
				c-0.1,0-0.3,0-0.4,0c0,0-0.1,0.1-0.1,0.2v3.6c0,0.8,0,1.5,0,1.9c0,0.3,0.1,0.5,0.4,0.5c0.1,0,0.3,0,0.5,0c0.1,0,0.1,0,0.1,0.1
				c0,0.1-0.1,0.1-0.2,0.1c-0.6,0-1.2,0-1.4,0c-0.2,0-0.8,0-1.2,0c-0.1,0-0.2,0-0.2-0.1c0,0,0-0.1,0.1-0.1c0.1,0,0.2,0,0.3,0
				c0.2,0,0.2-0.2,0.3-0.5c0-0.4,0-1.1,0-1.9V54.6z"/>
			<path class="st1" d="M97.1,55.4c0-1.5,1-3.5,3.8-3.5c2.3,0,3.7,1.3,3.7,3.4c0,2.1-1.5,3.7-3.8,3.7C98.2,58.9,97.1,57,97.1,55.4z
				 M103.3,55.6c0-2-1.2-3.3-2.7-3.3c-1.1,0-2.3,0.6-2.3,2.8c0,1.9,1.1,3.4,2.8,3.4C101.8,58.5,103.3,58.2,103.3,55.6z"/>
			<path class="st1" d="M106.6,54.6c0-1.4,0-1.6,0-1.9c0-0.3-0.1-0.5-0.4-0.5c-0.1,0-0.2,0-0.4,0c-0.1,0-0.2,0-0.2-0.1
				c0-0.1,0.1-0.1,0.2-0.1c0.5,0,1.1,0,1.3,0c0.3,0,1,0,1.3,0c0.6,0,1.2,0.1,1.7,0.4c0.3,0.2,0.6,0.6,0.6,1.2c0,0.7-0.3,1.3-1.2,2
				c0.8,1,1.4,1.8,2,2.4c0.5,0.5,0.9,0.6,1,0.6c0.1,0,0.2,0,0.3,0c0.1,0,0.1,0,0.1,0.1c0,0.1-0.1,0.1-0.2,0.1h-0.9
				c-0.5,0-0.7,0-1-0.2c-0.4-0.2-0.7-0.6-1.3-1.3c-0.4-0.5-0.8-1.1-0.9-1.2c0-0.1-0.1-0.1-0.2-0.1l-0.8,0c0,0-0.1,0-0.1,0.1v0.1
				c0,0.8,0,1.5,0,1.9c0,0.3,0.1,0.5,0.4,0.5c0.1,0,0.3,0,0.4,0c0.1,0,0.1,0,0.1,0.1c0,0.1-0.1,0.1-0.2,0.1c-0.5,0-1.2,0-1.3,0
				c-0.2,0-0.7,0-1.1,0c-0.1,0-0.2,0-0.2-0.1c0,0,0-0.1,0.1-0.1c0.1,0,0.2,0,0.3,0c0.2,0,0.2-0.2,0.3-0.5c0-0.4,0-1.1,0-1.9V54.6z
				 M107.6,55.3c0,0.1,0,0.1,0.1,0.2c0.2,0.1,0.5,0.1,0.7,0.1c0.4,0,0.5,0,0.6-0.2c0.3-0.2,0.5-0.6,0.5-1.3c0-1.3-0.9-1.6-1.4-1.6
				c-0.2,0-0.4,0-0.5,0c-0.1,0-0.1,0.1-0.1,0.1V55.3z"/>
			<path class="st1" d="M113.5,54.6c0-1.4,0-1.6,0-1.9c0-0.3-0.1-0.5-0.4-0.5c-0.1,0-0.2,0-0.4,0c-0.1,0-0.2,0-0.2-0.1
				c0-0.1,0.1-0.1,0.2-0.1c0.2,0,0.5,0,0.7,0c0.2,0,0.4,0,0.6,0c0.3,0,2.1,0,2.3,0c0.2,0,0.3,0,0.4-0.1c0,0,0.1,0,0.1,0
				s0.1,0,0.1,0.1c0,0.1,0,0.2-0.1,0.6c0,0.1,0,0.5,0,0.6c0,0,0,0.1-0.1,0.1c-0.1,0-0.1,0-0.1-0.1c0-0.1,0-0.2-0.1-0.3
				c-0.1-0.2-0.2-0.3-0.6-0.3c-0.2,0-1.1,0-1.3,0c0,0-0.1,0-0.1,0.1v2.3c0,0.1,0,0.1,0.1,0.1c0.2,0,1.3,0,1.5,0c0.2,0,0.4,0,0.4-0.1
				c0.1-0.1,0.1-0.1,0.1-0.1c0,0,0.1,0,0.1,0.1c0,0.1,0,0.2-0.1,0.7c0,0.2,0,0.5,0,0.6c0,0.1,0,0.2-0.1,0.2c-0.1,0-0.1,0-0.1-0.1
				c0-0.1,0-0.2,0-0.3c0-0.2-0.2-0.3-0.5-0.4c-0.2,0-1.1,0-1.3,0c0,0-0.1,0-0.1,0.1v0.7c0,0.3,0,1.1,0,1.4c0,0.6,0.2,0.8,1.1,0.8
				c0.2,0,0.6,0,0.9-0.1c0.2-0.1,0.3-0.3,0.4-0.7c0-0.1,0-0.1,0.1-0.1c0.1,0,0.1,0.1,0.1,0.2c0,0.2-0.1,0.8-0.1,1
				c-0.1,0.2-0.1,0.2-0.5,0.2c-0.7,0-1.2,0-1.6,0c-0.4,0-0.7,0-1,0c-0.1,0-0.3,0-0.5,0c-0.2,0-0.5,0-0.6,0c-0.1,0-0.2,0-0.2-0.1
				c0,0,0-0.1,0.1-0.1c0.1,0,0.2,0,0.3,0c0.2,0,0.2-0.2,0.3-0.5c0-0.4,0-1.1,0-1.9V54.6z"/>
			<path class="st1" d="M122.5,52.1c0-0.2,0.1-0.2,0.2-0.2c0.1,0,0.1,0,0.2,0.3l2.5,5.1l2.5-5.1c0.1-0.1,0.1-0.2,0.2-0.2
				c0.1,0,0.1,0.1,0.2,0.3l0.8,5.6c0.1,0.6,0.2,0.8,0.4,0.9c0.3,0.1,0.4,0.1,0.6,0.1c0.1,0,0.1,0,0.1,0.1c0,0.1-0.1,0.1-0.2,0.1
				c-0.2,0-1.5,0-1.9-0.1c-0.2,0-0.3,0-0.3-0.1c0,0,0-0.1,0.1-0.1c0.1,0,0.1-0.1,0-0.4l-0.5-4h0l-2,4.1c-0.2,0.4-0.3,0.5-0.3,0.5
				s-0.2-0.2-0.3-0.5c-0.2-0.4-0.9-1.8-1.1-2c-0.1-0.2-0.6-1.3-1-2h0l-0.5,3.6c0,0.2,0,0.3,0,0.4c0,0.2,0.1,0.3,0.3,0.3
				c0.2,0,0.3,0,0.4,0c0.1,0,0.1,0,0.1,0.1c0,0.1-0.1,0.1-0.2,0.1c-0.4,0-0.8,0-1,0c-0.2,0-0.6,0-0.9,0c-0.1,0-0.2,0-0.2-0.1
				c0,0,0.1-0.1,0.1-0.1c0.1,0,0.1,0,0.3,0c0.3-0.1,0.3-0.4,0.4-0.7L122.5,52.1z"/>
			<path class="st1" d="M132.2,56.5C132.1,56.5,132.1,56.5,132.2,56.5l-0.6,1.4c-0.1,0.2-0.1,0.4-0.1,0.5c0,0.2,0.1,0.3,0.4,0.3h0.1
				c0.1,0,0.1,0,0.1,0.1c0,0.1-0.1,0.1-0.2,0.1c-0.3,0-0.7,0-1,0c-0.1,0-0.6,0-1.1,0c-0.1,0-0.2,0-0.2-0.1c0-0.1,0-0.1,0.1-0.1
				c0.1,0,0.2,0,0.3,0c0.4-0.1,0.6-0.4,0.8-0.8l2.3-5.7c0.1-0.3,0.2-0.4,0.3-0.4c0.1,0,0.1,0.1,0.2,0.3c0.2,0.5,1.7,4.2,2.3,5.5
				c0.3,0.8,0.6,0.9,0.8,1c0.1,0,0.3,0,0.4,0c0.1,0,0.1,0,0.1,0.1c0,0.1-0.1,0.1-0.4,0.1c-0.3,0-1,0-1.7,0c-0.2,0-0.3,0-0.3-0.1
				c0-0.1,0-0.1,0.1-0.1c0.1,0,0.1-0.1,0.1-0.2l-0.7-1.9c0,0,0-0.1-0.1-0.1H132.2z M134,56C134.1,56,134.1,56,134,56l-0.8-2.3
				c0,0,0-0.1,0-0.1c0,0,0,0-0.1,0.1l-0.8,2.2c0,0,0,0.1,0,0.1H134z"/>
			<path class="st1" d="M138.8,57.6c0,0.7,0.1,0.9,0.3,1c0.2,0.1,0.3,0.1,0.5,0.1c0.1,0,0.2,0,0.2,0.1c0,0.1-0.1,0.1-0.2,0.1
				c-0.6,0-1,0-1.1,0c-0.1,0-0.5,0-1,0c-0.1,0-0.2,0-0.2-0.1c0-0.1,0.1-0.1,0.1-0.1c0.1,0,0.3,0,0.4,0c0.2-0.1,0.3-0.3,0.3-1.1
				l0.1-5.3c0-0.2,0-0.3,0.1-0.3c0.1,0,0.2,0.1,0.3,0.3c0.1,0.1,1.5,1.6,2.8,2.9c0.6,0.6,1.9,1.9,2,2.1h0l-0.1-4
				c0-0.5-0.1-0.7-0.3-0.8c-0.1-0.1-0.4-0.1-0.5-0.1c-0.1,0-0.1,0-0.1-0.1c0-0.1,0.1-0.1,0.2-0.1c0.5,0,0.9,0,1.1,0
				c0.1,0,0.4,0,0.9,0c0.1,0,0.2,0,0.2,0.1c0,0.1-0.1,0.1-0.2,0.1c-0.1,0-0.2,0-0.3,0c-0.3,0.1-0.3,0.3-0.3,0.8l-0.1,5.7
				c0,0.2,0,0.3-0.1,0.3c-0.1,0-0.2-0.1-0.3-0.2c-0.6-0.5-1.7-1.7-2.7-2.6c-1-1-2-2.1-2.2-2.3h0L138.8,57.6z"/>
			<path class="st1" d="M147.3,56.5C147.3,56.5,147.2,56.5,147.3,56.5l-0.6,1.4c-0.1,0.2-0.1,0.4-0.1,0.5c0,0.2,0.1,0.3,0.4,0.3h0.1
				c0.1,0,0.1,0,0.1,0.1c0,0.1-0.1,0.1-0.2,0.1c-0.3,0-0.7,0-1,0c-0.1,0-0.6,0-1.1,0c-0.1,0-0.2,0-0.2-0.1c0-0.1,0-0.1,0.1-0.1
				c0.1,0,0.2,0,0.3,0c0.4-0.1,0.6-0.4,0.8-0.8l2.3-5.7c0.1-0.3,0.2-0.4,0.3-0.4c0.1,0,0.1,0.1,0.2,0.3c0.2,0.5,1.7,4.2,2.3,5.5
				c0.3,0.8,0.6,0.9,0.8,1c0.1,0,0.3,0,0.4,0c0.1,0,0.1,0,0.1,0.1c0,0.1-0.1,0.1-0.4,0.1c-0.3,0-1,0-1.7,0c-0.2,0-0.3,0-0.3-0.1
				c0-0.1,0-0.1,0.1-0.1c0.1,0,0.1-0.1,0.1-0.2l-0.7-1.9c0,0,0-0.1-0.1-0.1H147.3z M149.2,56C149.2,56,149.2,56,149.2,56l-0.8-2.3
				c0,0,0-0.1,0-0.1c0,0,0,0-0.1,0.1l-0.8,2.2c0,0,0,0.1,0,0.1H149.2z"/>
			<path class="st1" d="M158.9,58.2c0,0.2,0,0.3-0.1,0.3c-0.6,0.3-1.5,0.4-2.2,0.4c-2.2,0-4.2-1-4.2-3.5c0-1.4,0.8-2.4,1.6-2.9
				c0.9-0.5,1.7-0.6,2.5-0.6c0.6,0,1.4,0.1,1.6,0.1c0.2,0,0.5,0.1,0.7,0.1c0.1,0,0.1,0,0.1,0.1c0,0.1-0.1,0.4-0.1,1.5
				c0,0.1,0,0.2-0.1,0.2c-0.1,0-0.1,0-0.1-0.1c0-0.2-0.1-0.5-0.3-0.7c-0.3-0.3-1-0.7-2-0.7c-0.5,0-1.2,0-1.8,0.6
				c-0.5,0.4-0.8,1.1-0.8,2.2c0,1.9,1.3,3.4,3.2,3.4c0.2,0,0.6,0,0.8-0.1c0.1-0.1,0.2-0.2,0.2-0.3v-0.8c0-0.4,0-0.8,0-1.1
				c0-0.3-0.1-0.5-0.4-0.5c-0.1,0-0.2,0-0.4,0c-0.1,0-0.1,0-0.1-0.1c0-0.1,0.1-0.1,0.2-0.1c0.5,0,1.1,0,1.3,0c0.3,0,0.8,0,1.1,0
				c0.1,0,0.2,0,0.2,0.1c0,0.1-0.1,0.1-0.1,0.1c-0.1,0-0.1,0-0.2,0c-0.2,0-0.3,0.2-0.3,0.5c0,0.3,0,0.6,0,1.1V58.2z"/>
			<path class="st1" d="M161.5,54.6c0-1.4,0-1.6,0-1.9c0-0.3-0.1-0.5-0.4-0.5c-0.1,0-0.2,0-0.4,0c-0.1,0-0.2,0-0.2-0.1
				c0-0.1,0.1-0.1,0.2-0.1c0.2,0,0.5,0,0.7,0c0.2,0,0.4,0,0.6,0c0.3,0,2.1,0,2.3,0c0.2,0,0.3,0,0.4-0.1c0,0,0.1,0,0.1,0
				c0,0,0.1,0,0.1,0.1c0,0.1,0,0.2-0.1,0.6c0,0.1,0,0.5,0,0.6c0,0,0,0.1-0.1,0.1c-0.1,0-0.1,0-0.1-0.1c0-0.1,0-0.2-0.1-0.3
				c-0.1-0.2-0.2-0.3-0.6-0.3c-0.2,0-1.1,0-1.3,0c0,0-0.1,0-0.1,0.1v2.3c0,0.1,0,0.1,0.1,0.1c0.2,0,1.3,0,1.5,0c0.2,0,0.4,0,0.4-0.1
				c0.1-0.1,0.1-0.1,0.1-0.1c0,0,0.1,0,0.1,0.1c0,0.1,0,0.2-0.1,0.7c0,0.2,0,0.5,0,0.6c0,0.1,0,0.2-0.1,0.2c-0.1,0-0.1,0-0.1-0.1
				c0-0.1,0-0.2,0-0.3c0-0.2-0.2-0.3-0.5-0.4c-0.2,0-1.1,0-1.3,0c0,0-0.1,0-0.1,0.1v0.7c0,0.3,0,1.1,0,1.4c0,0.6,0.2,0.8,1.1,0.8
				c0.2,0,0.6,0,0.9-0.1c0.2-0.1,0.3-0.3,0.4-0.7c0-0.1,0-0.1,0.1-0.1c0.1,0,0.1,0.1,0.1,0.2c0,0.2-0.1,0.8-0.1,1
				c-0.1,0.2-0.1,0.2-0.5,0.2c-0.7,0-1.2,0-1.6,0c-0.4,0-0.7,0-0.9,0c-0.1,0-0.3,0-0.5,0c-0.2,0-0.4,0-0.6,0c-0.1,0-0.2,0-0.2-0.1
				c0,0,0-0.1,0.1-0.1c0.1,0,0.2,0,0.3,0c0.2,0,0.2-0.2,0.3-0.5c0-0.4,0-1.1,0-1.9V54.6z"/>
			<path class="st1" d="M167.7,52.1c0-0.2,0.1-0.2,0.2-0.2c0.1,0,0.1,0,0.2,0.3l2.5,5.1l2.5-5.1c0.1-0.1,0.1-0.2,0.2-0.2
				c0.1,0,0.1,0.1,0.2,0.3l0.8,5.6c0.1,0.6,0.2,0.8,0.4,0.9c0.3,0.1,0.5,0.1,0.6,0.1c0.1,0,0.1,0,0.1,0.1c0,0.1-0.1,0.1-0.2,0.1
				c-0.2,0-1.5,0-1.9-0.1c-0.2,0-0.3,0-0.3-0.1c0,0,0-0.1,0.1-0.1c0.1,0,0.1-0.1,0-0.4l-0.5-4h0l-2,4.1c-0.2,0.4-0.3,0.5-0.3,0.5
				c-0.1,0-0.2-0.2-0.3-0.5c-0.2-0.4-0.9-1.8-1.1-2c-0.1-0.2-0.6-1.3-0.9-2h0l-0.5,3.6c0,0.2,0,0.3,0,0.4c0,0.2,0.1,0.3,0.3,0.3
				c0.2,0,0.3,0,0.4,0c0.1,0,0.1,0,0.1,0.1c0,0.1-0.1,0.1-0.2,0.1c-0.4,0-0.8,0-1,0c-0.2,0-0.6,0-0.9,0c-0.1,0-0.2,0-0.2-0.1
				c0,0,0.1-0.1,0.1-0.1c0.1,0,0.1,0,0.3,0c0.3-0.1,0.3-0.4,0.4-0.7L167.7,52.1z"/>
			<path class="st1" d="M177,54.6c0-1.4,0-1.6,0-1.9c0-0.3-0.1-0.5-0.4-0.5c-0.1,0-0.2,0-0.4,0c-0.1,0-0.2,0-0.2-0.1
				c0-0.1,0.1-0.1,0.2-0.1c0.2,0,0.5,0,0.7,0c0.2,0,0.4,0,0.6,0c0.3,0,2.1,0,2.3,0c0.2,0,0.3,0,0.4-0.1c0,0,0.1,0,0.1,0
				c0,0,0.1,0,0.1,0.1c0,0.1,0,0.2-0.1,0.6c0,0.1,0,0.5,0,0.6c0,0,0,0.1-0.1,0.1c-0.1,0-0.1,0-0.1-0.1c0-0.1,0-0.2-0.1-0.3
				c-0.1-0.2-0.2-0.3-0.6-0.3c-0.2,0-1.1,0-1.3,0c0,0-0.1,0-0.1,0.1v2.3c0,0.1,0,0.1,0.1,0.1c0.2,0,1.3,0,1.5,0c0.2,0,0.4,0,0.4-0.1
				c0.1-0.1,0.1-0.1,0.1-0.1c0,0,0.1,0,0.1,0.1c0,0.1,0,0.2-0.1,0.7c0,0.2,0,0.5,0,0.6c0,0.1,0,0.2-0.1,0.2c-0.1,0-0.1,0-0.1-0.1
				c0-0.1,0-0.2,0-0.3c0-0.2-0.2-0.3-0.5-0.4c-0.2,0-1.1,0-1.3,0c0,0-0.1,0-0.1,0.1v0.7c0,0.3,0,1.1,0,1.4c0,0.6,0.2,0.8,1.1,0.8
				c0.2,0,0.6,0,0.9-0.1c0.2-0.1,0.3-0.3,0.4-0.7c0-0.1,0-0.1,0.1-0.1c0.1,0,0.1,0.1,0.1,0.2c0,0.2-0.1,0.8-0.1,1
				c-0.1,0.2-0.1,0.2-0.5,0.2c-0.7,0-1.2,0-1.6,0c-0.4,0-0.7,0-1,0c-0.1,0-0.3,0-0.5,0c-0.2,0-0.4,0-0.6,0c-0.1,0-0.2,0-0.2-0.1
				c0,0,0-0.1,0.1-0.1c0.1,0,0.2,0,0.3,0c0.2,0,0.2-0.2,0.3-0.5c0-0.4,0-1.1,0-1.9V54.6z"/>
			<path class="st1" d="M183.3,57.6c0,0.7,0.1,0.9,0.3,1c0.2,0.1,0.3,0.1,0.5,0.1c0.1,0,0.2,0,0.2,0.1c0,0.1-0.1,0.1-0.2,0.1
				c-0.6,0-1,0-1.1,0c-0.1,0-0.5,0-1,0c-0.1,0-0.2,0-0.2-0.1c0-0.1,0.1-0.1,0.1-0.1c0.1,0,0.3,0,0.4,0c0.2-0.1,0.3-0.3,0.3-1.1
				l0.1-5.3c0-0.2,0-0.3,0.1-0.3c0.1,0,0.2,0.1,0.3,0.3c0.1,0.1,1.5,1.6,2.8,2.9c0.6,0.6,1.9,1.9,2,2.1h0l-0.1-4
				c0-0.5-0.1-0.7-0.3-0.8c-0.1-0.1-0.4-0.1-0.5-0.1c-0.1,0-0.1,0-0.1-0.1c0-0.1,0.1-0.1,0.2-0.1c0.5,0,0.9,0,1.1,0
				c0.1,0,0.4,0,0.9,0c0.1,0,0.2,0,0.2,0.1c0,0.1-0.1,0.1-0.2,0.1c-0.1,0-0.2,0-0.3,0c-0.3,0.1-0.3,0.3-0.3,0.8l-0.1,5.7
				c0,0.2,0,0.3-0.1,0.3c-0.1,0-0.2-0.1-0.3-0.2c-0.6-0.5-1.7-1.7-2.7-2.6c-1-1-2-2.1-2.2-2.3h0L183.3,57.6z"/>
			<path class="st1" d="M192.7,52.5l-1.4,0c-0.5,0-0.7,0.1-0.9,0.3c-0.1,0.1-0.1,0.2-0.2,0.3c0,0.1,0,0.1-0.1,0.1
				c-0.1,0-0.1,0-0.1-0.1c0-0.1,0.2-1,0.2-1c0-0.1,0.1-0.2,0.1-0.2c0.1,0,0.2,0.1,0.4,0.1c0.3,0,0.6,0,0.9,0h3.6c0.3,0,0.5,0,0.6,0
				c0.1,0,0.2,0,0.2,0c0.1,0,0.1,0.1,0.1,0.2c0,0.2,0,0.8,0,1c0,0.1,0,0.1-0.1,0.1c-0.1,0-0.1,0-0.1-0.2l0-0.1
				c0-0.2-0.3-0.5-1.1-0.5l-1.2,0v3.7c0,0.8,0,1.5,0,1.9c0,0.3,0.1,0.5,0.4,0.5c0.1,0,0.3,0,0.5,0c0.1,0,0.1,0,0.1,0.1
				c0,0.1-0.1,0.1-0.2,0.1c-0.6,0-1.2,0-1.4,0c-0.2,0-0.8,0-1.2,0c-0.1,0-0.2,0-0.2-0.1c0,0,0-0.1,0.1-0.1c0.1,0,0.2,0,0.3,0
				c0.2,0,0.2-0.2,0.3-0.5c0-0.4,0-1.1,0-1.9V52.5z"/>
			<path class="st1" d="M58.9,65.4c0-1.4,0-1.6,0-1.9c0-0.3-0.1-0.4-0.4-0.5c-0.1,0-0.2,0-0.4,0c-0.1,0-0.2,0-0.2-0.1
				c0-0.1,0.1-0.1,0.2-0.1c0.5,0,1.1,0,1.3,0c0.2,0,0.8,0,1.1,0c0.1,0,0.2,0,0.2,0.1c0,0.1-0.1,0.1-0.1,0.1c-0.1,0-0.2,0-0.3,0
				c-0.2,0-0.3,0.2-0.3,0.5c0,0.3,0,0.5,0,1.9v1.3c0,1.3,0.3,1.9,0.7,2.2c0.4,0.3,0.8,0.4,1.1,0.4c0.4,0,0.9-0.1,1.3-0.5
				c0.5-0.5,0.5-1.3,0.5-2.2v-1.1c0-1.4,0-1.6,0-1.9c0-0.3-0.1-0.4-0.4-0.5c-0.1,0-0.2,0-0.3,0c-0.1,0-0.2,0-0.2-0.1
				c0-0.1,0.1-0.1,0.2-0.1c0.5,0,1,0,1.1,0c0.1,0,0.7,0,1,0c0.1,0,0.2,0,0.2,0.1c0,0.1-0.1,0.1-0.2,0.1c-0.1,0-0.2,0-0.3,0
				c-0.2,0-0.3,0.2-0.3,0.5c0,0.3,0,0.5,0,1.9v1c0,1-0.1,2.1-0.9,2.7c-0.6,0.5-1.3,0.6-1.9,0.6c-0.5,0-1.4,0-2-0.6
				c-0.5-0.4-0.8-1.1-0.8-2.4V65.4z"/>
			<path class="st1" d="M67.6,68.3c0,0.7,0.1,0.9,0.3,1c0.2,0.1,0.3,0.1,0.5,0.1c0.1,0,0.2,0,0.2,0.1c0,0.1-0.1,0.1-0.2,0.1
				c-0.6,0-1,0-1.1,0c-0.1,0-0.5,0-1,0c-0.1,0-0.2,0-0.2-0.1c0-0.1,0.1-0.1,0.1-0.1c0.1,0,0.3,0,0.4,0c0.2-0.1,0.3-0.3,0.3-1.1
				l0.1-5.3c0-0.2,0-0.3,0.1-0.3c0.1,0,0.2,0.1,0.3,0.3c0.1,0.1,1.5,1.6,2.8,2.9c0.6,0.6,1.9,1.9,2,2.1h0l-0.1-4
				c0-0.5-0.1-0.7-0.3-0.8c-0.1-0.1-0.4-0.1-0.5-0.1c-0.1,0-0.1,0-0.1-0.1c0-0.1,0.1-0.1,0.2-0.1c0.5,0,0.9,0,1.1,0
				c0.1,0,0.4,0,0.9,0c0.1,0,0.2,0,0.2,0.1c0,0.1-0.1,0.1-0.2,0.1c-0.1,0-0.2,0-0.3,0C73,63,73,63.2,73,63.7l-0.1,5.7
				c0,0.2,0,0.3-0.1,0.3c-0.1,0-0.2-0.1-0.3-0.2c-0.6-0.5-1.7-1.7-2.7-2.6c-1-1-2-2.1-2.2-2.3h0L67.6,68.3z"/>
			<path class="st1" d="M75.8,65.4c0-1.4,0-1.6,0-1.9c0-0.3-0.1-0.5-0.3-0.5c-0.1,0-0.2,0-0.3,0c-0.1,0-0.1,0-0.1-0.1
				c0-0.1,0.1-0.1,0.2-0.1c0.3,0,0.9,0,1.2,0c0.2,0,0.8,0,1.1,0c0.1,0,0.2,0,0.2,0.1c0,0.1-0.1,0.1-0.1,0.1c-0.1,0-0.2,0-0.3,0
				c-0.2,0-0.3,0.2-0.3,0.5c0,0.3,0,0.5,0,1.9v1.6c0,0.9,0,1.6,0,2c0,0.2,0.1,0.4,0.4,0.4c0.1,0,0.3,0,0.5,0c0.1,0,0.1,0,0.1,0.1
				c0,0.1-0.1,0.1-0.2,0.1c-0.6,0-1.2,0-1.4,0c-0.2,0-0.8,0-1.1,0c-0.1,0-0.2,0-0.2-0.1c0,0,0-0.1,0.1-0.1c0.1,0,0.2,0,0.3,0
				c0.2,0,0.2-0.2,0.3-0.5c0-0.4,0-1.1,0-2V65.4z"/>
			<path class="st1" d="M79.2,63.6c-0.2-0.5-0.4-0.6-0.7-0.7c-0.1,0-0.3,0-0.4,0c-0.1,0-0.1,0-0.1-0.1c0-0.1,0.1-0.1,0.2-0.1
				c0.5,0,1,0,1.3,0c0.2,0,0.7,0,1.1,0c0.1,0,0.2,0,0.2,0.1c0,0.1-0.1,0.1-0.1,0.1c-0.1,0-0.3,0-0.4,0.1c-0.1,0-0.1,0.1-0.1,0.2
				c0,0.1,0.1,0.4,0.2,0.7l1.6,4.1h0c0.4-1,1.6-3.9,1.8-4.5c0-0.1,0.1-0.3,0.1-0.3c0-0.1,0-0.1-0.1-0.2c-0.1,0-0.2,0-0.4,0
				c-0.1,0-0.2,0-0.2-0.1c0-0.1,0.1-0.1,0.3-0.1c0.5,0,0.8,0,1,0c0.2,0,0.6,0,0.9,0c0.1,0,0.2,0,0.2,0.1c0,0.1-0.1,0.1-0.1,0.1
				c-0.1,0-0.3,0-0.4,0.1c-0.1,0.1-0.3,0.2-0.5,0.8c-0.4,0.8-0.6,1.3-1.1,2.4c-0.6,1.3-1,2.3-1.2,2.7c-0.2,0.5-0.3,0.7-0.4,0.7
				c-0.1,0-0.2-0.1-0.3-0.5L79.2,63.6z"/>
			<path class="st1" d="M86.7,65.4c0-1.4,0-1.6,0-1.9c0-0.3-0.1-0.4-0.4-0.5c-0.1,0-0.2,0-0.4,0c-0.1,0-0.2,0-0.2-0.1
				c0-0.1,0.1-0.1,0.2-0.1c0.2,0,0.5,0,0.7,0c0.2,0,0.4,0,0.6,0c0.3,0,2.1,0,2.3,0c0.2,0,0.3,0,0.4-0.1c0,0,0.1,0,0.1,0
				c0,0,0.1,0,0.1,0.1c0,0.1,0,0.2-0.1,0.6c0,0.1,0,0.5,0,0.6c0,0,0,0.1-0.1,0.1c-0.1,0-0.1,0-0.1-0.1c0-0.1,0-0.2-0.1-0.3
				c-0.1-0.2-0.2-0.3-0.6-0.3c-0.2,0-1.1,0-1.3,0c0,0-0.1,0-0.1,0.1v2.3c0,0.1,0,0.1,0.1,0.1c0.2,0,1.3,0,1.5,0c0.2,0,0.4,0,0.4-0.1
				c0.1-0.1,0.1-0.1,0.1-0.1c0,0,0.1,0,0.1,0.1c0,0.1,0,0.2-0.1,0.7c0,0.2,0,0.5,0,0.6c0,0.1,0,0.2-0.1,0.2c-0.1,0-0.1,0-0.1-0.1
				c0-0.1,0-0.2,0-0.3c0-0.2-0.2-0.3-0.5-0.3c-0.2,0-1.1,0-1.3,0c0,0-0.1,0-0.1,0.1v0.7c0,0.3,0,1.1,0,1.4c0,0.6,0.2,0.8,1.1,0.8
				c0.2,0,0.6,0,0.9-0.1c0.2-0.1,0.3-0.3,0.4-0.7c0-0.1,0-0.1,0.1-0.1c0.1,0,0.1,0.1,0.1,0.2c0,0.2-0.1,0.8-0.1,1
				c-0.1,0.2-0.1,0.2-0.5,0.2c-0.7,0-1.2,0-1.6,0c-0.4,0-0.7,0-1,0c-0.1,0-0.3,0-0.5,0c-0.2,0-0.4,0-0.6,0c-0.1,0-0.2,0-0.2-0.1
				c0,0,0-0.1,0.1-0.1c0.1,0,0.2,0,0.3,0c0.2,0,0.2-0.2,0.3-0.5c0-0.4,0-1.1,0-1.9V65.4z"/>
			<path class="st1" d="M92.5,65.4c0-1.4,0-1.6,0-1.9c0-0.3-0.1-0.4-0.4-0.5c-0.1,0-0.2,0-0.4,0c-0.1,0-0.2,0-0.2-0.1
				c0-0.1,0.1-0.1,0.2-0.1c0.5,0,1.1,0,1.3,0c0.3,0,1,0,1.3,0c0.6,0,1.2,0.1,1.7,0.4c0.3,0.2,0.6,0.6,0.6,1.2c0,0.7-0.3,1.3-1.2,2
				c0.8,1,1.4,1.8,2,2.4c0.5,0.5,0.9,0.6,1,0.6c0.1,0,0.2,0,0.3,0c0.1,0,0.1,0,0.1,0.1c0,0.1-0.1,0.1-0.2,0.1h-0.9
				c-0.5,0-0.7,0-1-0.2c-0.4-0.2-0.7-0.6-1.3-1.3c-0.4-0.5-0.8-1.1-0.9-1.2c0-0.1-0.1-0.1-0.2-0.1l-0.8,0c0,0-0.1,0-0.1,0.1v0.1
				c0,0.8,0,1.5,0,1.9c0,0.3,0.1,0.5,0.4,0.5c0.1,0,0.3,0,0.4,0c0.1,0,0.1,0,0.1,0.1c0,0.1-0.1,0.1-0.2,0.1c-0.5,0-1.2,0-1.3,0
				c-0.2,0-0.7,0-1.1,0c-0.1,0-0.2,0-0.2-0.1c0,0,0-0.1,0.1-0.1c0.1,0,0.2,0,0.3,0c0.2,0,0.2-0.2,0.3-0.5c0-0.4,0-1.1,0-1.9V65.4z
				 M93.6,66.1c0,0.1,0,0.1,0.1,0.2c0.2,0.1,0.5,0.1,0.7,0.1c0.4,0,0.5,0,0.6-0.2c0.3-0.2,0.5-0.6,0.5-1.3c0-1.3-0.9-1.6-1.4-1.6
				c-0.2,0-0.4,0-0.5,0c-0.1,0-0.1,0.1-0.1,0.1V66.1z"/>
			<path class="st1" d="M98.8,69.4c-0.1-0.1-0.2-0.1-0.2-0.3c0-0.5,0-1,0-1.2c0-0.1,0-0.2,0.1-0.2c0.1,0,0.1,0.1,0.1,0.2
				c0,0.1,0,0.3,0.1,0.5c0.2,0.7,0.7,0.9,1.3,0.9c0.8,0,1.2-0.5,1.2-1c0-0.4-0.1-0.9-0.9-1.4l-0.4-0.3c-1-0.8-1.4-1.4-1.4-2.1
				c0-1,0.8-1.7,2.1-1.7c0.6,0,1,0.1,1.2,0.2c0.1,0,0.1,0,0.1,0.1c0,0.1,0,0.4,0,1.1c0,0.2,0,0.3-0.1,0.3c-0.1,0-0.1-0.1-0.1-0.2
				c0-0.1,0-0.4-0.2-0.6c-0.1-0.2-0.4-0.4-1-0.4c-0.7,0-1.1,0.4-1.1,0.9c0,0.4,0.2,0.7,1,1.3l0.3,0.2c1.1,0.8,1.5,1.4,1.5,2.3
				c0,0.5-0.2,1.1-0.9,1.6c-0.5,0.3-1,0.4-1.5,0.4C99.6,69.7,99.2,69.6,98.8,69.4z"/>
			<path class="st1" d="M104.7,65.4c0-1.4,0-1.6,0-1.9c0-0.3-0.1-0.5-0.3-0.5c-0.1,0-0.2,0-0.3,0c-0.1,0-0.1,0-0.1-0.1
				c0-0.1,0.1-0.1,0.2-0.1c0.3,0,0.9,0,1.2,0c0.2,0,0.8,0,1.1,0c0.1,0,0.2,0,0.2,0.1c0,0.1-0.1,0.1-0.1,0.1c-0.1,0-0.2,0-0.3,0
				c-0.2,0-0.3,0.2-0.3,0.5c0,0.3,0,0.5,0,1.9v1.6c0,0.9,0,1.6,0,2c0,0.2,0.1,0.4,0.4,0.4c0.1,0,0.3,0,0.5,0c0.1,0,0.1,0,0.1,0.1
				c0,0.1-0.1,0.1-0.2,0.1c-0.6,0-1.2,0-1.4,0c-0.2,0-0.8,0-1.2,0c-0.1,0-0.2,0-0.2-0.1c0,0,0-0.1,0.1-0.1c0.1,0,0.2,0,0.3,0
				c0.2,0,0.2-0.2,0.3-0.5c0-0.4,0-1.1,0-2V65.4z"/>
			<path class="st1" d="M110.1,63.3l-1.4,0c-0.5,0-0.8,0.1-0.9,0.3c-0.1,0.1-0.1,0.2-0.2,0.3c0,0.1,0,0.1-0.1,0.1
				c-0.1,0-0.1,0-0.1-0.1c0-0.1,0.2-1,0.2-1c0-0.1,0.1-0.2,0.1-0.2c0.1,0,0.2,0.1,0.4,0.1c0.3,0,0.6,0,0.9,0h3.6c0.3,0,0.5,0,0.6,0
				c0.1,0,0.2,0,0.2,0c0.1,0,0.1,0.1,0.1,0.2c0,0.2,0,0.8,0,1c0,0.1,0,0.1-0.1,0.1c-0.1,0-0.1,0-0.1-0.2l0-0.1
				c0-0.2-0.3-0.5-1.1-0.5l-1.2,0v3.7c0,0.8,0,1.5,0,1.9c0,0.3,0.1,0.4,0.4,0.5c0.1,0,0.3,0,0.5,0c0.1,0,0.1,0,0.1,0.1
				c0,0.1-0.1,0.1-0.2,0.1c-0.6,0-1.2,0-1.4,0c-0.2,0-0.8,0-1.1,0c-0.1,0-0.2,0-0.2-0.1c0,0,0-0.1,0.1-0.1c0.1,0,0.2,0,0.3,0
				c0.2,0,0.2-0.2,0.3-0.5c0-0.4,0-1.1,0-1.9V63.3z"/>
			<path class="st1" d="M116.5,67.2c0-0.5-0.1-0.7-0.2-0.9c-0.1-0.1-1.3-2.1-1.6-2.6c-0.2-0.3-0.5-0.6-0.6-0.7
				c-0.1-0.1-0.3-0.1-0.4-0.1c-0.1,0-0.1,0-0.1-0.1c0-0.1,0.1-0.1,0.2-0.1c0.2,0,0.8,0,1.2,0c0.2,0,0.6,0,1,0c0.1,0,0.1,0,0.1,0.1
				c0,0.1-0.1,0.1-0.2,0.1c-0.1,0-0.1,0.1-0.1,0.2c0,0.1,0,0.2,0.1,0.3c0.1,0.3,1.4,2.4,1.6,2.7c0.1-0.2,1.2-2.2,1.4-2.5
				c0.1-0.2,0.1-0.3,0.1-0.5c0-0.1,0-0.2-0.2-0.2c-0.1,0-0.2,0-0.2-0.1c0-0.1,0-0.1,0.2-0.1c0.3,0,0.6,0,0.9,0c0.2,0,0.8,0,1,0
				c0.1,0,0.2,0,0.2,0.1c0,0.1-0.1,0.1-0.2,0.1c-0.1,0-0.3,0-0.4,0.1c-0.2,0.1-0.3,0.2-0.5,0.4c-0.3,0.4-1.6,2.5-1.7,2.9
				c-0.1,0.3-0.1,0.6-0.1,0.9V68c0,0.1,0,0.5,0,0.9c0,0.3,0.1,0.5,0.4,0.5c0.1,0,0.3,0,0.5,0c0.1,0,0.1,0,0.1,0.1
				c0,0.1-0.1,0.1-0.2,0.1c-0.6,0-1.2,0-1.4,0c-0.2,0-0.8,0-1.1,0c-0.1,0-0.2,0-0.2-0.1c0,0,0-0.1,0.1-0.1c0.1,0,0.2,0,0.3,0
				c0.2,0,0.3-0.2,0.3-0.5c0-0.4,0-0.8,0-0.9V67.2z"/>
		</g>
	</g>
</g>
</svg>
